# AST/ASF file generated using VICON BodyLanguage
# -----------------------------------------------
:version 1.10
:name VICON
:units
  mass 1.0
  length 0.45
  angle deg
:documentation
   .ast/.asf automatically generated from VICON data using
   VICON BodyBuilder and BodyLanguage model FoxedUp or BRILLIANT.MOD
:root
   order TX TY TZ RX RY RZ
   axis XYZ
   position 0 0 0  
   orientation 0 0 0 
:bonedata
  begin
     id 1 
     name lhipjoint
     direction 0.643822 -0.745931 0.170529 
     length 2.62041 
     axis 0 0 0  XYZ
  end
  begin
     id 2 
     name lfemur
     direction 0.34202 -0.939693 0  
     length 7.92179  
     axis 0 0 20  XYZ
    dof rx ry rz
    limits (-160.0 20.0)
           (-70.0 70.0)
           (-60.0 70.0)
  end
  begin
     id 3 
     name ltibia
     direction 0.34202 -0.939693 0   
     length 8.16326   
     axis 0 0 20   XYZ
    dof rx
    limits (-10.0 170.0)
  end
  begin
     id 4 
     name lfoot
     direction 0.0837341 -0.230058 0.969568   
     length 1.94455   
     axis -90 7.62852e-016 20   XYZ
    dof rx rz
    limits (-45.0 90.0)
           (-70.0 20.0)
  end
  begin
     id 5 
     name ltoes
     direction 1.5356e-011 -4.21695e-011 1   
     length 0.978804   
     axis -90 7.62852e-016 20   XYZ
    dof rx
    limits (-90.0 20.0)
  end
  begin
     id 6 
     name rhipjoint
     direction -0.656883 -0.73503 0.168037   
     length 2.65927  
     axis 0 0 0  XYZ 
  end
  begin
     id 7 
     name rfemur
     direction -0.34202 -0.939693 0   
     length 7.58746   
     axis 0 0 -20   XYZ
    dof rx ry rz
    limits (-160.0 20.0)
           (-70.0 70.0)
           (-70.0 60.0)
  end
  begin
     id 8 
     name rtibia
     direction -0.342117 -0.939657 0   
     length 8.27303   
     axis 0 0 -20   XYZ
    dof rx
    limits (-10.0 170.0)
 end
 begin
     id 9 
     name rfoot
     direction -0.0685862 -0.188439 0.979687   
     length 2.13088  
     axis -90 -7.62852e-016 -20   XYZ
    dof rx rz
    limits (-45.0 90.0)
           (-20.0 70.0)
  end
  begin
     id 10 
     name rtoes
     direction -1.53538e-011 -4.21514e-011 1   
     length 1.07326   
     axis -90 -7.62852e-016 -20   XYZ
    dof rx
    limits (-90.0 20.0)
  end
  begin
     id 11 
     name lowerback
     direction -0.0358974 0.997216 0.065354   
     length 1.87174   
     axis 0 0 0   XYZ
    dof rx ry rz
    limits (-20.0 45.0)
           (-30.0 30.0)
           (-30.0 30.0)
  end
  begin
     id 12 
     name upperback
     direction 0.0202028 0.998565 0.0495864   
     length 1.8684   
     axis 0 0 0   XYZ
    dof rx ry rz
    limits (-20.0 45.0)
           (-30.0 30.0)
           (-30.0 30.0)
  end
  begin
     id 13 
     name thorax
     direction 0.0366367 0.999163 0.0182199   
     length 1.87747   
     axis 0 0 0   XYZ
    dof rx ry rz
    limits (-20.0 45.0)
           (-30.0 30.0)
           (-30.0 30.0)
  end
  begin
     id 14 
     name lowerneck
     direction 0.0284381 0.999578 -0.00598196   
     length 1.84583   
     axis 0 0 0   XYZ
    dof rx ry rz
    limits (-20.0 45.0)
           (-30.0 30.0)
           (-30.0 30.0)
  end
  begin
     id 15 
     name upperneck
     direction -0.0888142 0.993333 -0.0734973   
     length 1.84467   
     axis 0 0 0   XYZ
    dof rx ry rz
    limits (-20.0 45.0)
           (-30.0 30.0)
           (-30.0 30.0)
  end
  begin
     id 16
     name head
     direction -0.0296474 0.999102 -0.0302696  
     length 1.86566  
     axis 0 0 0   XYZ
    dof rx ry rz
    limits (-20.0 45.0)
           (-30.0 30.0)
           (-30.0 30.0)
  end
  begin
     id 17 
     name lclavicle
     direction 0.933925 0.35714 -0.0153523  
     length 3.93442  
     axis 0 0 0   XYZ
    dof ry rz
    limits (-20.0 10.0)
           (0.0 20.0)
  end
  begin
     id 18 
     name lhumerus
     direction 1 -4.48967e-011 2.12044e-027   
     length 5.78174   
     axis 180 -30 -90   XYZ
    dof rx ry rz
    limits (-60.0 90.0)
           (-90.0 90.0)
           (-90.0 90.0)
  end
  begin
     id 19
     name lradius
     direction 1 -4.48972e-011 6.45701e-027   
     length 3.53992   
     axis 180 -30 -90   XYZ
    dof rx
    limits (-10.0 170.0)
  end
  begin
     id 20
     name lwrist
     direction 1 -4.48981e-011 1.70244e-026   
     length 1.76996   
     axis -1.1226e-014 90 90   XYZ
    dof ry
    limits (-180.0 0.0)
 end
  begin
     id 21 
     name lhand
     direction 1 -4.4879e-011 3.40615e-026   
     length 0.550243   
     axis -2.17265e-014 90 90   XYZ
    dof rx rz
    limits (-90.0 90.0)
           (-45.0 45.0)
  end
  begin
     id 22 
     name lfingers
     direction 1 -4.49029e-011 6.80911e-026   
     length 0.44362   
     axis -4.34526e-014 90 90   XYZ
    dof rx
    limits (0.0 90.0)
  end
  begin
     id 23
     name lthumb
     direction 0.707107 -6.34923e-011 0.707107   
     length 0.636952   
     axis -90 45 -1.62303e-014   XYZ
    dof rx rz
    limits (-45.0 45.0)
           (-45.0 45.0)
  end
  begin
     id 24 
     name rclavicle
     direction -0.950832 0.305106 0.0531883   
     length 3.96125  
     axis 0 0 0   XYZ 
    dof ry rz
    limits (-10.0 20.0)
           (-20.0 0.0)
  end
  begin
     id 25 
     name rhumerus
     direction -1 -4.48961e-011 -6.07392e-030  
     length 5.79352   
     axis 180 30 90   XYZ
    dof rx ry rz
    limits (-90.0 60.0)
           (-90.0 90.0)
           (-90.0 90.0)
  end
  begin
     id 26 
     name rradius
     direction -1 -4.48964e-011 5.97548e-027   
     length 3.37081   
     axis 180 30 90   XYZ
    dof rx
    limits (-10.0 170.0)
  end
  begin
     id 27 
     name rwrist
     direction -1 -4.49021e-011 1.7023e-026   
     length 1.68541   
     axis -1.1226e-014 -90 -90   XYZ
    dof ry
    limits (-180.0 0.0)
  end
  begin
     id 28
     name rhand
     direction -1 -4.48867e-011 3.40563e-026   
     length 0.679827   
     axis -2.17265e-014 -90 -90   XYZ
    dof rx rz
    limits (-90.0 90.0)
           (-45.0 45.0)
  end
  begin
     id 29
     name rfingers
     direction -1 -4.49024e-011 6.80917e-026   
     length 0.548094   
     axis -4.34526e-014 -90 -90   XYZ
    dof rx
    limits (0.0 90.0)
  end
  begin
     id 30
     name rthumb
     direction -0.707107 -6.3488e-011 0.707107   
     length 0.786956   
     axis -90 -45 1.62303e-014   XYZ
    dof rx rz
    limits (-45.0 45.0)
           (-45.0 45.0)
  end
:hierarchy
  begin
    root lhipjoint rhipjoint lowerback
    lhipjoint lfemur
    lfemur ltibia
    ltibia lfoot
    lfoot ltoes
    rhipjoint rfemur
    rfemur rtibia
    rtibia rfoot
    rfoot rtoes
    lowerback upperback
    upperback thorax
    thorax lowerneck lclavicle rclavicle
    lowerneck upperneck
    upperneck head
    lclavicle lhumerus
    lhumerus lradius
    lradius lwrist
    lwrist lhand lthumb
    lhand lfingers
    rclavicle rhumerus
    rhumerus rradius
    rradius rwrist
    rwrist rhand rthumb
    rhand rfingers
  end

#!OML:ASF H:\Terrain\Patient Classification 1\PaulMetrics\Match1Take2\PaulMetrics.ASF
:FULLY-SPECIFIED
:DEGREES
155
root 13.1651 17.8998 -27.2242 -163.472 -24.1489 183.375
lowerback -8.47771 -0.662846 -3.50682
upperback -6.35688 -1.1803 2.7195
thorax -1.74162 -0.655365 4.72351
lowerneck 11.3568 17.9384 12.7535
upperneck -1.68376 24.9575 -18.422
head 1.66124 12.8679 -7.11366
rclavicle -7.71222e-015 -1.77912e-014
rhumerus -60.4632 10.9846 -85.6316
rradius 37.3619
rwrist -8.90596
rhand -8.10693 -31.9707
rfingers 7.12502
rthumb 17.806 -61.1755
lclavicle -7.71222e-015 -1.77912e-014
lhumerus -47.7149 -26.374 98.2078
lradius 81.5647
lwrist 5.2874
lhand -18.2101 -10.3501
lfingers 7.12502
lthumb 8.06754 19.4759
rfemur -42.6176 11.2548 7.8305
rtibia 32.6211
rfoot -2.33482 -10.3786
rtoes -18.3591
lfemur -24.3936 -11.7585 -25.4575
ltibia 30.748
lfoot -17.6106 -8.77535
ltoes -1.18226
156
root 13.1542 17.8972 -27.3123 -163.308 -25.1839 182.925
lowerback -8.30307 -0.610916 -3.81327
upperback -6.41474 -1.08893 2.57509
thorax -1.90849 -0.593028 4.75645
lowerneck 11.2269 18.1325 12.9759
upperneck -1.15905 25.3046 -18.1369
head 1.87888 13.0196 -6.98092
rclavicle -1.7698e-014 5.46658e-015
rhumerus -60.5634 10.906 -85.501
rradius 37.2136
rwrist -8.93113
rhand -8.39784 -31.7517
rfingers 7.12502
rthumb 17.526 -60.9817
lclavicle -1.7698e-014 5.46658e-015
lhumerus -47.7951 -26.607 98.1492
lradius 81.4903
lwrist 5.2579
lhand -18.0438 -10.2648
lfingers 7.12502
lthumb 8.22806 19.555
rfemur -42.6031 11.8367 6.85137
rtibia 30.9514
rfoot -2.17865 -9.70272
rtoes -18.2643
lfemur -23.8131 -11.9975 -25.6981
ltibia 30.2014
lfoot -17.0369 -9.6839
ltoes 0.254485
157
root 13.133 17.8912 -27.3988 -162.709 -26.2169 181.721
lowerback -8.11973 -0.679166 -4.66802
upperback -6.53367 -1.13271 2.24321
thorax -2.13048 -0.581048 4.89597
lowerneck 11.309 18.2776 13.6018
upperneck -0.746694 25.6427 -18.4552
head 2.16344 13.1868 -7.08019
rclavicle 8.23869e-015 -2.5842e-014
rhumerus -60.8237 10.8689 -85.3955
rradius 37.2382
rwrist -8.98729
rhand -8.75481 -31.573
rfingers 7.12502
rthumb 17.1824 -60.8332
lclavicle 8.23869e-015 -2.5842e-014
lhumerus -48.056 -26.6419 98.1231
lradius 81.6155
lwrist 5.34675
lhand -18.2475 -10.0151
lfingers 7.12502
lthumb 8.03147 19.8123
rfemur -42.6603 12.303 4.89605
rtibia 29.363
rfoot -2.6506 -8.72325
rtoes -15.6037
lfemur -23.2506 -12.2311 -26.7117
ltibia 29.615
lfoot -16.4024 -10.703
ltoes 2.11009
158
root 13.1139 17.8952 -27.4944 -161.973 -27.2784 180.67
lowerback -8.25877 -0.82917 -5.57398
upperback -6.6367 -1.28175 2.04474
thorax -2.14414 -0.627489 5.1921
lowerneck 11.2646 18.545 13.5915
upperneck -0.487165 26.0286 -18.2889
head 2.28429 13.3684 -6.971
rclavicle -1.76359e-014 4.07509e-015
rhumerus -60.9459 10.9915 -85.2272
rradius 37.208
rwrist -8.74365
rhand -8.62427 -31.7308
rfingers 7.12502
rthumb 17.3081 -60.9801
lclavicle -1.76359e-014 4.07509e-015
lhumerus -48.3381 -26.5501 98.1422
lradius 81.7265
lwrist 5.85852
lhand -18.2803 -9.60005
lfingers 7.12502
lthumb 7.9998 20.2286
rfemur -42.8911 12.9757 3.00304
rtibia 27.7728
rfoot -3.08955 -8.21764
rtoes -14.1061
lfemur -22.9249 -12.4762 -27.4624
ltibia 29.1329
lfoot -15.8468 -11.6808
ltoes 3.66683
159
root 13.0993 17.8996 -27.5957 -161.817 -28.4606 180.764
lowerback -8.53463 -0.860312 -5.50865
upperback -6.64243 -1.31432 2.13669
thorax -1.99298 -0.650158 5.24469
lowerneck 10.7216 18.8594 13.2528
upperneck 0.354042 26.4419 -17.4872
head 2.52554 13.5181 -6.57199
rclavicle 4.7581e-014 3.02153e-014
rhumerus -60.9039 11.0615 -84.9997
rradius 37.1232
rwrist -8.58878
rhand -8.52874 -31.8984
rfingers 7.12502
rthumb 17.4 -61.1396
lclavicle 4.7581e-014 3.02153e-014
lhumerus -48.5323 -26.4755 98.14
lradius 81.6221
lwrist 6.2244
lhand -17.8637 -9.52236
lfingers 7.12502
lthumb 8.40185 20.2905
rfemur -42.9803 13.8424 2.47829
rtibia 26.183
rfoot -2.85564 -8.15732
rtoes -20.1017
lfemur -22.6206 -12.7392 -27.0295
ltibia 28.7211
lfoot -15.4114 -12.4416
ltoes 5.33562
160
root 13.076 17.8959 -27.69 -162.055 -29.8012 181.483
lowerback -8.9102 -0.785058 -4.59513
upperback -6.49524 -1.24183 2.28679
thorax -1.64209 -0.651089 4.87889
lowerneck 9.43902 19.176 12.7768
upperneck 1.8684 26.8353 -16.0566
head 2.96818 13.6103 -5.8835
rclavicle 3.17434e-015 3.18055e-015
rhumerus -60.6735 11.0446 -84.7968
rradius 37.039
rwrist -8.81003
rhand -8.45217 -31.7412
rfingers 7.12502
rthumb 17.4737 -60.9758
lclavicle 3.17434e-015 3.18055e-015
lhumerus -48.5179 -26.5164 98.0594
lradius 81.52
lwrist 6.28495
lhand -18.1309 -8.94764
lfingers 7.12502
lthumb 8.14397 20.8754
rfemur -42.7556 14.4481 2.77674
rtibia 24.5529
rfoot -2.1875 -7.59626
rtoes -29.4469
lfemur -22.272 -13.0212 -26.0343
ltibia 28.4283
lfoot -15.0685 -13.1294
ltoes 7.1044
161
root 13.0547 17.9035 -27.788 -162.047 -31.004 181.709
lowerback -9.15774 -0.500793 -4.04271
upperback -6.43308 -0.884584 2.25473
thorax -1.48359 -0.492492 4.55508
lowerneck 9.48819 19.3542 13.2894
upperneck 1.49353 27.1581 -17.5912
head 3.18433 13.7825 -6.31788
rclavicle 6.04057e-014 5.70512e-014
rhumerus -60.5956 10.4025 -84.1396
rradius 36.9168
rwrist -8.70022
rhand -8.41684 -31.2913
rfingers 7.12502
rthumb 17.5077 -60.5229
lclavicle 6.04057e-014 5.70512e-014
lhumerus -48.5559 -27.1425 98.4326
lradius 81.2893
lwrist 6.62246
lhand -19.5334 -8.23142
lfingers 7.12502
lthumb 6.79028 21.6397
rfemur -42.7672 15.6184 2.0218
rtibia 22.9593
rfoot -1.98444 -7.31542
rtoes -33.6299
lfemur -21.9553 -13.2206 -25.537
ltibia 28.2136
lfoot -14.7948 -13.7277
ltoes 7.48511
